<svg width="16" height="16" viewBox="0 0 16 16" fill="none" xmlns="http://www.w3.org/2000/svg">
<path d="M7.67989 0.956991C4.09786 0.855429 1.10567 3.69137 1.00411 7.2734C0.902548 10.8554 3.73848 13.8515 7.32052 13.9531C10.9025 14.0507 13.8986 11.2187 14.0002 7.63277C14.0197 6.88277 13.9065 6.16012 13.6877 5.48433L12.8635 6.26168C12.9611 6.69527 13.0119 7.14449 13.0002 7.60933C12.9143 10.6406 10.3791 13.0351 7.34786 12.9531C4.31661 12.8671 1.91817 10.332 2.0002 7.30074C2.08614 4.26949 4.6213 1.87105 7.65255 1.95308C8.64473 1.98433 9.56661 2.2773 10.3596 2.76558L11.1096 2.05465C10.1252 1.3984 8.95333 0.992148 7.67989 0.956991ZM12.5002 2.79293L6.5002 8.79293L4.85177 7.1484L4.5002 6.79293L3.79317 7.49996L4.14864 7.85152L6.5002 10.207L13.2072 3.49996L12.5002 2.79293Z" fill="#F69020"/>
</svg>
